<svg width="572" height="371" viewBox="0 0 572 371" fill="none" xmlns="http://www.w3.org/2000/svg">
<g filter="url(#filter0_d_1_862)">
<path d="M8 9.03518C8 6.80661 9.80661 5 12.0352 5H557.965C560.193 5 562 6.80661 562 9.03518V353.965C562 356.193 560.193 358 557.965 358H12.0352C9.8066 358 8 356.193 8 353.965V9.03518Z" fill="white"/>
<path d="M12.0352 5.5H557.965C559.917 5.5 561.5 7.08275 561.5 9.03518V353.965C561.5 355.917 559.917 357.5 557.965 357.5H12.0352C10.0827 357.5 8.5 355.917 8.5 353.965V9.03518C8.5 7.08275 10.0828 5.5 12.0352 5.5Z" stroke="#91A9BC"/>
</g>
<path d="M69.2991 221.906H70.5318V223.647H69.2991V226H67.1398V223.647H62.6795L62.5823 222.287L67.1174 215.122H69.2991V221.906ZM64.7341 221.906H67.1398V218.065L66.9979 218.312L64.7341 221.906ZM79.0193 221.502C79.0193 223.006 78.708 224.157 78.0854 224.954C77.4628 225.751 76.5513 226.149 75.3509 226.149C74.1654 226.149 73.2589 225.758 72.6313 224.976C72.0037 224.194 71.6824 223.074 71.6675 221.614V219.612C71.6675 218.093 71.9813 216.94 72.6089 216.153C73.2415 215.366 74.1505 214.972 75.3359 214.972C76.5214 214.972 77.4279 215.363 78.0555 216.145C78.6831 216.922 79.0044 218.041 79.0193 219.5V221.502ZM76.8601 219.306C76.8601 218.404 76.7356 217.749 76.4865 217.341C76.2424 216.927 75.8589 216.721 75.3359 216.721C74.8279 216.721 74.4518 216.917 74.2077 217.311C73.9687 217.699 73.8417 218.309 73.8267 219.141V221.786C73.8267 222.673 73.9463 223.333 74.1853 223.766C74.4294 224.194 74.8179 224.409 75.3509 224.409C75.8788 224.409 76.2599 224.202 76.494 223.788C76.7281 223.375 76.8501 222.742 76.8601 221.891V219.306Z" fill="#142948"/>
<path opacity="0.2" d="M64.099 252.546L64.6519 247.122H70.2255V248.399H65.8249L65.4962 251.365C66.0291 251.052 66.6343 250.895 67.3117 250.895C68.3029 250.895 69.0899 251.223 69.6726 251.881C70.2554 252.533 70.5468 253.418 70.5468 254.533C70.5468 255.654 70.243 256.538 69.6353 257.186C69.0326 257.828 68.1883 258.149 67.1025 258.149C66.1412 258.149 65.3567 257.883 64.749 257.35C64.1413 256.817 63.7952 256.08 63.7105 255.138H65.018C65.1027 255.761 65.3243 256.232 65.6829 256.551C66.0416 256.864 66.5147 257.021 67.1025 257.021C67.745 257.021 68.2481 256.802 68.6117 256.364C68.9803 255.925 69.1646 255.32 69.1646 254.548C69.1646 253.821 68.9654 253.238 68.5669 252.8C68.1734 252.357 67.6479 252.135 66.9904 252.135C66.3877 252.135 65.9145 252.267 65.5709 252.531L65.2048 252.83L64.099 252.546ZM78.8773 253.36C78.8773 254.979 78.6009 256.182 78.048 256.969C77.4951 257.756 76.631 258.149 75.4555 258.149C74.2949 258.149 73.4357 257.766 72.8778 256.999C72.32 256.227 72.0311 255.076 72.0112 253.547V251.702C72.0112 250.103 72.2876 248.915 72.8405 248.138C73.3934 247.361 74.26 246.972 75.4405 246.972C76.611 246.972 77.4727 247.348 78.0256 248.1C78.5785 248.848 78.8624 250.003 78.8773 251.567V253.36ZM77.4951 251.47C77.4951 250.3 77.3308 249.448 77.002 248.915C76.6733 248.377 76.1528 248.108 75.4405 248.108C74.7332 248.108 74.2177 248.374 73.894 248.907C73.5702 249.44 73.4033 250.26 73.3934 251.365V253.577C73.3934 254.752 73.5627 255.622 73.9014 256.184C74.2451 256.742 74.7631 257.021 75.4555 257.021C76.1378 257.021 76.6434 256.757 76.9722 256.229C77.3059 255.701 77.4802 254.87 77.4951 253.734V251.47Z" fill="#142948"/>
<path opacity="0.2" d="M68.0065 130H66.6169V120.788L63.83 121.811V120.556L67.7899 119.069H68.0065V130ZM78.8773 125.36C78.8773 126.979 78.6009 128.182 78.048 128.969C77.4951 129.756 76.631 130.149 75.4555 130.149C74.2949 130.149 73.4357 129.766 72.8778 128.999C72.32 128.227 72.0311 127.076 72.0112 125.547V123.702C72.0112 122.103 72.2876 120.915 72.8405 120.138C73.3934 119.361 74.26 118.972 75.4405 118.972C76.611 118.972 77.4727 119.348 78.0256 120.1C78.5785 120.848 78.8624 122.003 78.8773 123.567V125.36ZM77.4951 123.47C77.4951 122.3 77.3308 121.448 77.002 120.915C76.6733 120.377 76.1528 120.108 75.4405 120.108C74.7332 120.108 74.2177 120.374 73.894 120.907C73.5702 121.44 73.4033 122.26 73.3934 123.365V125.577C73.3934 126.752 73.5627 127.622 73.9014 128.184C74.2451 128.742 74.7631 129.021 75.4555 129.021C76.1378 129.021 76.6434 128.757 76.9722 128.229C77.3059 127.701 77.4802 126.87 77.4951 125.734V123.47Z" fill="#142948"/>
<path opacity="0.2" d="M70.487 311.899L65.9818 322H64.5323L69.0226 312.257H63.1352V311.122H70.487V311.899ZM78.8773 317.36C78.8773 318.979 78.6009 320.182 78.048 320.969C77.4951 321.756 76.631 322.149 75.4555 322.149C74.2949 322.149 73.4357 321.766 72.8778 320.999C72.32 320.227 72.0311 319.076 72.0112 317.547V315.702C72.0112 314.103 72.2876 312.915 72.8405 312.138C73.3934 311.361 74.26 310.972 75.4405 310.972C76.611 310.972 77.4727 311.348 78.0256 312.1C78.5785 312.848 78.8624 314.003 78.8773 315.567V317.36ZM77.4951 315.47C77.4951 314.3 77.3308 313.448 77.002 312.915C76.6733 312.377 76.1528 312.108 75.4405 312.108C74.7332 312.108 74.2177 312.374 73.894 312.907C73.5702 313.44 73.4033 314.26 73.3934 315.365V317.577C73.3934 318.752 73.5627 319.622 73.9014 320.184C74.2451 320.742 74.7631 321.021 75.4555 321.021C76.1378 321.021 76.6434 320.757 76.9722 320.229C77.3059 319.701 77.4802 318.87 77.4951 317.734V315.47Z" fill="#142948"/>
<path opacity="0.2" d="M65.4737 187.888H66.5123C67.1648 187.878 67.6778 187.707 68.0514 187.373C68.4249 187.039 68.6117 186.588 68.6117 186.021C68.6117 184.745 67.9766 184.108 66.7065 184.108C66.1088 184.108 65.6306 184.28 65.272 184.623C64.9184 184.962 64.7415 185.413 64.7415 185.976H63.3593C63.3593 185.114 63.6731 184.399 64.3007 183.831C64.9333 183.259 65.7352 182.972 66.7065 182.972C67.7326 182.972 68.537 183.244 69.1198 183.787C69.7025 184.33 69.9939 185.084 69.9939 186.05C69.9939 186.524 69.8395 186.982 69.5307 187.425C69.2268 187.869 68.8109 188.2 68.283 188.419C68.8807 188.608 69.3414 188.922 69.6652 189.36C69.9939 189.799 70.1583 190.334 70.1583 190.967C70.1583 191.943 69.8395 192.717 69.2019 193.29C68.5644 193.863 67.7351 194.149 66.714 194.149C65.6929 194.149 64.8611 193.873 64.2186 193.32C63.581 192.767 63.2622 192.038 63.2622 191.131H64.6519C64.6519 191.704 64.8387 192.162 65.2122 192.506C65.5858 192.849 66.0864 193.021 66.714 193.021C67.3814 193.021 67.892 192.847 68.2456 192.498C68.5993 192.15 68.7761 191.649 68.7761 190.997C68.7761 190.364 68.5818 189.878 68.1933 189.54C67.8048 189.201 67.2444 189.027 66.5123 189.017H65.4737V187.888ZM78.8773 189.36C78.8773 190.979 78.6009 192.182 78.048 192.969C77.4951 193.756 76.631 194.149 75.4555 194.149C74.2949 194.149 73.4357 193.766 72.8778 192.999C72.32 192.227 72.0311 191.076 72.0112 189.547V187.702C72.0112 186.103 72.2876 184.915 72.8405 184.138C73.3934 183.361 74.26 182.972 75.4405 182.972C76.611 182.972 77.4727 183.348 78.0256 184.1C78.5785 184.848 78.8624 186.003 78.8773 187.567V189.36ZM77.4951 187.47C77.4951 186.3 77.3308 185.448 77.002 184.915C76.6733 184.377 76.1528 184.108 75.4405 184.108C74.7332 184.108 74.2177 184.374 73.894 184.907C73.5702 185.44 73.4033 186.26 73.3934 187.365V189.577C73.3934 190.752 73.5627 191.622 73.9014 192.184C74.2451 192.742 74.7631 193.021 75.4555 193.021C76.1378 193.021 76.6434 192.757 76.9722 192.229C77.3059 191.701 77.4802 190.87 77.4951 189.734V187.47Z" fill="#142948"/>
<path d="M76.9423 98H74.783V89.6769L72.2054 90.4763V88.7206L76.7107 87.1068H76.9423V98Z" fill="#142948"/>
<path d="M68.7686 279.01V280.788H68.5594C67.5831 280.803 66.7962 281.057 66.1985 281.55C65.6057 282.043 65.2496 282.728 65.1301 283.605C65.7078 283.017 66.4375 282.723 67.3192 282.723C68.2655 282.723 69.0176 283.062 69.5755 283.739C70.1334 284.416 70.4123 285.308 70.4123 286.414C70.4123 287.121 70.2579 287.761 69.9491 288.334C69.6452 288.907 69.2119 289.352 68.6491 289.671C68.0912 289.99 67.4586 290.149 66.7513 290.149C65.6057 290.149 64.6793 289.751 63.972 288.954C63.2697 288.157 62.9185 287.094 62.9185 285.764V284.987C62.9185 283.806 63.1402 282.765 63.5835 281.864C64.0318 280.957 64.6718 280.257 65.5036 279.764C66.3404 279.266 67.3092 279.015 68.41 279.01H68.7686ZM66.6617 284.456C66.313 284.456 65.9967 284.548 65.7128 284.733C65.4289 284.912 65.2197 285.151 65.0852 285.45V286.107C65.0852 286.83 65.2272 287.395 65.5111 287.803C65.795 288.207 66.1935 288.409 66.7065 288.409C67.1697 288.409 67.5433 288.227 67.8272 287.863C68.1161 287.495 68.2606 287.019 68.2606 286.436C68.2606 285.843 68.1161 285.365 67.8272 285.002C67.5383 284.638 67.1498 284.456 66.6617 284.456ZM79.0193 285.502C79.0193 287.006 78.708 288.157 78.0854 288.954C77.4628 289.751 76.5513 290.149 75.3509 290.149C74.1654 290.149 73.2589 289.758 72.6313 288.976C72.0037 288.194 71.6824 287.074 71.6675 285.614V283.612C71.6675 282.093 71.9813 280.94 72.6089 280.153C73.2415 279.366 74.1505 278.972 75.3359 278.972C76.5214 278.972 77.4279 279.363 78.0555 280.145C78.6831 280.922 79.0044 282.041 79.0193 283.5V285.502ZM76.8601 283.306C76.8601 282.404 76.7356 281.749 76.4865 281.341C76.2424 280.927 75.8589 280.721 75.3359 280.721C74.8279 280.721 74.4518 280.917 74.2077 281.311C73.9687 281.699 73.8417 282.309 73.8267 283.141V285.786C73.8267 286.673 73.9463 287.333 74.1853 287.766C74.4294 288.194 74.8179 288.409 75.3509 288.409C75.8788 288.409 76.2599 288.202 76.494 287.788C76.7281 287.375 76.8501 286.742 76.8601 285.891V283.306Z" fill="#142948"/>
<path d="M70.3675 162H62.9111V160.521L66.4301 156.77C66.9132 156.242 67.2694 155.781 67.4985 155.388C67.7326 154.994 67.8496 154.621 67.8496 154.267C67.8496 153.784 67.7276 153.405 67.4835 153.132C67.2395 152.853 66.8908 152.713 66.4375 152.713C65.9494 152.713 65.5634 152.882 65.2795 153.221C65.0006 153.555 64.8611 153.996 64.8611 154.544H62.6944C62.6944 153.881 62.8513 153.276 63.1651 152.728C63.4839 152.18 63.9321 151.752 64.5099 151.443C65.0877 151.129 65.7427 150.972 66.4749 150.972C67.5956 150.972 68.4648 151.241 69.0824 151.779C69.705 152.317 70.0163 153.077 70.0163 154.058C70.0163 154.596 69.8769 155.144 69.5979 155.702C69.319 156.26 68.8408 156.91 68.1634 157.652L65.6904 160.259H70.3675V162ZM79.0193 157.502C79.0193 159.006 78.708 160.157 78.0854 160.954C77.4628 161.751 76.5513 162.149 75.3509 162.149C74.1654 162.149 73.2589 161.758 72.6313 160.976C72.0037 160.194 71.6824 159.074 71.6675 157.614V155.612C71.6675 154.093 71.9813 152.94 72.6089 152.153C73.2415 151.366 74.1505 150.972 75.3359 150.972C76.5214 150.972 77.4279 151.363 78.0555 152.145C78.6831 152.922 79.0044 154.041 79.0193 155.5V157.502ZM76.8601 155.306C76.8601 154.404 76.7356 153.749 76.4865 153.341C76.2424 152.927 75.8589 152.721 75.3359 152.721C74.8279 152.721 74.4518 152.917 74.2077 153.311C73.9687 153.699 73.8417 154.309 73.8267 155.141V157.786C73.8267 158.673 73.9463 159.333 74.1853 159.766C74.4294 160.194 74.8179 160.409 75.3509 160.409C75.8788 160.409 76.2599 160.202 76.494 159.788C76.7281 159.375 76.8501 158.742 76.8601 157.891V155.306Z" fill="#142948"/>
<path opacity="0.5" fill-rule="evenodd" clip-rule="evenodd" d="M201.684 316.225L201.684 95H200.684L200.684 316.225L147 316.225L147 96.6479L146 96.6479L146 316.225H93L92.9999 96.6479L91.9999 96.6479L92 316.225H91V317.225H92L92 318.252H93L93 317.225H146V318.252H147V317.225L255.043 317.225V317.458H256.043V317.225H309.387V317.458H310.387V317.225H363.734V317.458H364.734V317.225H418.09V317.458H419.09V317.225L527 317.225V316.604H527.785L527.785 95H526.785L526.785 316.225H473.434L473.434 95H472.434L472.434 316.225H419.09L419.09 95.8545L418.09 95.8545L418.09 316.225H364.734L364.734 95.8545L363.734 95.8545L363.734 316.225H310.387L310.387 95.8545L309.387 95.8545L309.387 316.225H256.043L256.043 95.8545L255.043 95.8545L255.043 316.225H201.684Z" fill="#CDCDCD"/>
<path d="M144 287C200.5 240 286.45 178.119 419 174" stroke="#C6C6C6" stroke-width="3"/>
<path d="M144 253C171.004 209.567 229.64 123.727 350 95" stroke="#FF6067" stroke-width="3"/>
<path d="M144 253C171.004 209.567 229.64 123.727 350 95" stroke="#0097E2" stroke-width="3"/>
<defs>
<filter id="filter0_d_1_862" x="0.938437" y="0.964821" width="570.141" height="369.141" filterUnits="userSpaceOnUse" color-interpolation-filters="sRGB">
<feFlood flood-opacity="0" result="BackgroundImageFix"/>
<feColorMatrix in="SourceAlpha" type="matrix" values="0 0 0 0 0 0 0 0 0 0 0 0 0 0 0 0 0 0 127 0" result="hardAlpha"/>
<feOffset dx="1.00879" dy="4.03518"/>
<feGaussianBlur stdDeviation="4.03518"/>
<feColorMatrix type="matrix" values="0 0 0 0 0 0 0 0 0 0 0 0 0 0 0 0 0 0 0.05 0"/>
<feBlend mode="normal" in2="BackgroundImageFix" result="effect1_dropShadow_1_862"/>
<feBlend mode="normal" in="SourceGraphic" in2="effect1_dropShadow_1_862" result="shape"/>
</filter>
</defs>
</svg>
