<svg width="177" height="28" viewBox="0 0 177 28" fill="none" xmlns="http://www.w3.org/2000/svg">
<path d="M2.2506 18.3815C1.00969 18.3815 0.00770709 17.3804 0.00770704 16.1406C0.00770698 14.9008 1.00969 13.8997 2.2506 13.8997L10.9139 13.8997L11.7463 13.8997C12.3244 13.8997 12.8254 13.6687 13.1953 13.2375L15.9931 10.0032C16.3708 9.56426 16.8641 9.34094 17.4499 9.34094L24.3481 9.34094C25.589 9.34094 26.591 10.342 26.591 11.5818C26.591 12.8216 25.589 13.8227 24.3481 13.8227L19.87 13.8227L17.1647 13.8227L14.8601 13.8227C14.2821 13.8227 13.7811 14.046 13.4034 14.485L10.6056 17.727C10.2279 18.1659 9.73463 18.3892 9.15656 18.3892L2.2506 18.3892L2.2506 18.3815ZM22.8374 2.7612e-05L24.3481 2.75459e-05C25.589 2.74917e-05 26.591 1.00111 26.591 2.24092C26.591 3.48073 25.589 4.48182 24.3481 4.48182L20.2477 4.48182C19.6696 4.48182 19.1687 4.71284 18.791 5.14407L15.9931 8.37835C15.6155 8.81729 15.1145 9.04061 14.5364 9.04061C10.436 9.04061 6.34331 9.04061 2.24289 9.04061C1.00198 9.04061 -8.59694e-07 8.03953 -9.13888e-07 6.79972C-9.68081e-07 5.55991 1.00198 4.55882 2.24289 4.55882L2.2506 4.55882L17.1339 4.55882C17.7119 4.55882 18.2129 4.3278 18.5829 3.89657L21.3807 0.662286C21.7584 0.231048 22.2594 2.76372e-05 22.8374 2.7612e-05ZM3.76128 27.707L2.2506 27.707C1.00969 27.707 0.0077075 26.7059 0.00770744 25.4661C0.00770739 24.2263 1.00969 23.2252 2.2506 23.2252L6.35872 23.2252C6.93679 23.2252 7.43778 22.9942 7.80774 22.563L10.6056 19.3287C10.9832 18.8898 11.4765 18.6664 12.0623 18.6664C16.1627 18.6664 20.2554 18.6664 24.3558 18.6664C25.5967 18.6664 26.5987 19.6675 26.5987 20.9073C26.5987 22.1471 25.5967 23.1482 24.3558 23.1482L24.3481 23.1482L9.46486 23.1482C8.8868 23.1482 8.38581 23.3716 8.01584 23.8105L5.21801 27.0448C4.84034 27.476 4.33935 27.707 3.76128 27.707Z" fill="url(#paint0_linear_1_1899)"/>
<path fill-rule="evenodd" clip-rule="evenodd" d="M171.209 22.4933L171.209 12.3143C171.209 11.5337 171.374 10.7454 171.938 10.179C172.493 9.60501 173.282 9.43664 174.048 9.43664L175.633 9.43664C175.836 9.43664 176.002 9.26827 176.002 9.06163L176.002 6.5054C176.002 6.29876 175.836 6.13039 175.633 6.13039L173.433 6.13039C171.847 6.13039 170.345 6.55132 169.203 7.72229C168.061 8.89325 167.656 10.4316 167.656 12.0541L167.656 22.4933C167.656 22.6999 167.821 22.8683 168.024 22.8683L170.848 22.8683C171.044 22.8683 171.209 22.6999 171.209 22.4933ZM63.3072 4.64573e-05C64.5466 4.64031e-05 65.5457 1.01794 65.5457 2.28075C65.5457 3.54355 64.5391 4.56145 63.3072 4.56145C62.0677 4.56145 61.0686 3.54355 61.0686 2.28075C61.0686 1.01794 62.0677 4.65115e-05 63.3072 4.64573e-05ZM68.7533 22.4933L68.7533 0.933758C68.7533 0.727117 68.9186 0.558741 69.1214 0.558741L71.9309 0.558741C72.1337 0.558741 72.299 0.727117 72.299 0.933758L72.299 6.36765L76.1902 6.36765C76.393 6.36765 76.5583 6.53602 76.5583 6.74266L76.5583 9.13051C76.5583 9.33715 76.393 9.50552 76.1902 9.50552L72.299 9.50552L72.299 22.4933C72.299 22.6999 72.1337 22.8683 71.9309 22.8683L69.1214 22.8683C68.9186 22.8683 68.7533 22.6999 68.7533 22.4933ZM54.3154 22.4933L54.3154 0.933759C54.3154 0.727118 54.4806 0.558742 54.6834 0.558742L57.4929 0.558742C57.6957 0.558742 57.861 0.727118 57.861 0.933759L57.861 22.4933C57.861 22.6999 57.6957 22.8683 57.4929 22.8683L54.6834 22.8683C54.4806 22.8683 54.3154 22.6999 54.3154 22.4933ZM61.5343 22.4933L61.5343 6.74266C61.5343 6.53602 61.6996 6.36765 61.9024 6.36765L64.7119 6.36765C64.9147 6.36765 65.08 6.53602 65.08 6.74266L65.08 22.4933C65.08 22.6999 64.9147 22.8683 64.7119 22.8683L61.9024 22.8683C61.6996 22.8683 61.5343 22.6999 61.5343 22.4933ZM80.7499 12.9036L90.0197 12.9036C89.7342 11.8628 89.2234 10.952 88.3821 10.2709C87.5032 9.56675 86.4816 9.26062 85.3623 9.26062C84.2505 9.26062 83.2139 9.56675 82.3425 10.2862C81.5162 10.9673 81.0129 11.8628 80.7499 12.9036ZM80.6523 15.8884C80.8551 17.0058 81.3284 18.0008 82.1922 18.7508C83.0937 19.5391 84.1904 19.8605 85.3698 19.8605C86.2412 19.8605 87.0675 19.6768 87.8337 19.2483C88.3971 18.9268 88.8704 18.5059 89.2535 17.9931C89.3737 17.8247 89.599 17.7941 89.7643 17.9166L91.8977 19.5008C91.9803 19.562 92.0254 19.6462 92.0404 19.7534C92.0554 19.8605 92.0329 19.9524 91.9653 20.0366C91.4695 20.7024 90.8685 21.284 90.1699 21.7815C88.7352 22.7994 87.1201 23.2739 85.3698 23.2739C83.0561 23.2739 81.0654 22.478 79.4429 20.7866C77.8053 19.0799 77.0541 16.9982 77.0541 14.6256C77.0541 13.072 77.3921 11.5796 78.1358 10.2173C78.8569 8.90091 79.8485 7.86005 81.1255 7.10237C82.4326 6.32938 83.8599 5.97732 85.3698 5.97732C86.9097 5.97732 88.3671 6.33703 89.6892 7.14829C90.9512 7.92128 91.9277 8.96979 92.6113 10.2938C93.3174 11.6561 93.6329 13.1256 93.6329 14.6639C93.6329 14.9624 93.6104 15.2609 93.5804 15.5517C93.5578 15.743 93.4001 15.8884 93.2123 15.8884L80.6523 15.8884ZM38.9534 12.9036L48.2232 12.9036C47.9377 11.8628 47.4269 10.952 46.5855 10.2709C45.7066 9.56675 44.6775 9.26062 43.5657 9.26062C42.4465 9.26062 41.4173 9.56675 40.5459 10.2862C39.7196 10.9673 39.2088 11.8628 38.9534 12.9036ZM38.8482 15.8884C39.0511 17.0058 39.5243 18.0008 40.3882 18.7508C41.2896 19.5391 42.3864 19.8605 43.5657 19.8605C44.4371 19.8605 45.2634 19.6768 46.0297 19.2483C46.5931 18.9268 47.0663 18.5059 47.4419 17.9931C47.5621 17.8247 47.795 17.7941 47.9527 17.9166L50.0861 19.5008C50.1688 19.562 50.2138 19.6462 50.2364 19.7534C50.2514 19.8605 50.2288 19.9524 50.1612 20.0366C49.6654 20.7024 49.0645 21.2841 48.3659 21.7815C46.9311 22.7994 45.316 23.2739 43.5657 23.2739C41.2521 23.2739 39.2614 22.478 37.6388 20.7866C36.0012 19.0799 35.25 16.9982 35.25 14.6256C35.25 13.072 35.588 11.5796 36.3317 10.2173C37.0529 8.90091 38.0444 7.86005 39.3215 7.10237C40.6286 6.32938 42.0558 5.97733 43.5657 5.97733C45.1057 5.97733 46.563 6.33703 47.8851 7.14829C49.1471 7.92128 50.1237 8.96979 50.8073 10.2938C51.5134 11.6561 51.8214 13.1256 51.8214 14.6639C51.8214 14.9624 51.7988 15.2609 51.7688 15.5517C51.7463 15.743 51.5885 15.8884 51.4007 15.8884L38.8482 15.8884ZM112.593 21.8198C111.233 22.9066 109.528 23.2663 107.831 23.2663C106.11 23.2663 104.413 22.8759 103.068 21.7203C102.227 21.0009 101.686 20.1284 101.408 19.1258C101.378 19.0187 101.393 18.9192 101.445 18.8273C101.498 18.7355 101.581 18.6743 101.686 18.6513L104.368 18.062C104.548 18.0237 104.728 18.1232 104.796 18.3069C104.938 18.7355 105.209 19.0952 105.607 19.386C106.283 19.8835 107.124 20.0366 107.951 20.0366C108.694 20.0366 109.468 19.9064 110.107 19.4932C110.625 19.1564 110.925 18.6972 110.925 18.0696C110.925 17.8171 110.865 17.5722 110.738 17.3502C110.617 17.1436 110.46 16.9676 110.272 16.8298C110.047 16.6691 109.739 16.5466 109.476 16.4624C109.168 16.3629 108.845 16.2711 108.529 16.2022C108.154 16.118 107.77 16.0491 107.387 15.9803C106.997 15.9114 106.606 15.8425 106.223 15.7583C105.84 15.6818 105.464 15.5746 105.089 15.4675C104.706 15.3603 104.307 15.2226 103.947 15.0389C103.616 14.8705 103.301 14.6639 103 14.4419C102.685 14.2123 102.392 13.9292 102.182 13.5924C101.964 13.248 101.813 12.85 101.693 12.4597C101.551 11.9852 101.49 11.4954 101.49 10.9979C101.49 9.49022 102.084 8.27333 103.248 7.34727C104.555 6.30642 106.178 5.96202 107.808 5.96202C109.438 5.96202 111.053 6.32938 112.338 7.4085C113.164 8.10496 113.682 8.96213 113.93 9.94176C113.96 10.0413 113.945 10.1408 113.885 10.2326C113.833 10.3244 113.75 10.378 113.652 10.401L111.076 10.9673C110.888 11.0056 110.7 10.8908 110.648 10.6994C110.535 10.2862 110.302 9.93411 109.926 9.65094C109.303 9.19173 108.484 9.06928 107.733 9.06928C107.034 9.06928 106.261 9.18408 105.667 9.58206C105.201 9.89584 104.938 10.3168 104.938 10.8984C104.938 11.0898 104.969 11.2888 105.036 11.4571C105.111 11.6332 105.239 11.7633 105.389 11.8781C105.554 12.0005 105.727 12.1077 105.9 12.2072C106.118 12.3143 106.381 12.3908 106.614 12.4444C106.884 12.5056 107.154 12.5669 107.425 12.6204C107.733 12.6893 108.041 12.7352 108.349 12.7888C109.401 12.9725 110.753 13.2098 111.737 13.6383C113.419 14.3654 114.313 15.6741 114.411 17.5262C114.419 17.6564 114.426 17.7865 114.426 17.9166C114.419 19.5238 113.825 20.8325 112.593 21.8198ZM135.324 22.4933L135.324 0.933755C135.324 0.727115 135.49 0.558738 135.692 0.558738L138.502 0.558738C138.705 0.558738 138.87 0.727114 138.87 0.933755L138.87 22.4933C138.87 22.6999 138.705 22.8683 138.502 22.8683L135.692 22.8683C135.49 22.8683 135.324 22.6999 135.324 22.4933ZM142.543 22.4933L142.543 0.933755C142.543 0.727114 142.709 0.558738 142.911 0.558738L145.721 0.558738C145.924 0.558738 146.089 0.727114 146.089 0.933755L146.089 22.4933C146.089 22.6999 145.924 22.8683 145.721 22.8683L142.911 22.8683C142.709 22.8683 142.543 22.6999 142.543 22.4933ZM152.279 12.9036L161.549 12.9036C161.263 11.8628 160.752 10.952 159.911 10.2709C159.032 9.56675 158.003 9.26061 156.891 9.26061C155.779 9.26061 154.743 9.56675 153.871 10.2862C153.053 10.9673 152.542 11.8628 152.279 12.9036ZM152.181 15.8884C152.384 17.0058 152.857 18.0008 153.721 18.7508C154.623 19.5391 155.719 19.8605 156.899 19.8605C157.77 19.8605 158.596 19.6768 159.363 19.2483C159.934 18.9268 160.407 18.5059 160.782 17.9931C160.903 17.8247 161.128 17.7941 161.293 17.9166L163.427 19.5008C163.509 19.562 163.562 19.6462 163.577 19.7534C163.592 19.8605 163.569 19.9524 163.502 20.0365C163.006 20.7024 162.405 21.284 161.706 21.7815C160.272 22.7994 158.656 23.2739 156.906 23.2739C154.593 23.2739 152.602 22.478 150.979 20.7866C149.342 19.0799 148.59 16.9982 148.59 14.6256C148.59 13.072 148.928 11.5796 149.672 10.2173C150.393 8.9009 151.385 7.86005 152.662 7.10236C153.969 6.32937 155.396 5.97732 156.899 5.97732C158.439 5.97732 159.896 6.33703 161.218 7.14829C162.48 7.92127 163.457 8.96978 164.14 10.2938C164.846 11.6561 165.162 13.1256 165.162 14.6639C165.162 14.9624 165.139 15.2608 165.109 15.5517C165.087 15.743 164.936 15.8884 164.741 15.8884L152.181 15.8884ZM119.955 12.9036L129.225 12.9036C128.939 11.8628 128.428 10.952 127.587 10.2709C126.708 9.56675 125.679 9.26061 124.567 9.26061C123.455 9.26061 122.419 9.56675 121.547 10.2862C120.721 10.9673 120.218 11.8628 119.955 12.9036ZM119.857 15.8884C120.06 17.0058 120.533 18.0008 121.397 18.7508C122.299 19.5391 123.395 19.8605 124.575 19.8605C125.446 19.8605 126.272 19.6768 127.039 19.2483C127.602 18.9268 128.075 18.5059 128.458 17.9931C128.579 17.8247 128.804 17.7941 128.969 17.9166L131.103 19.5008C131.185 19.562 131.238 19.6462 131.253 19.7534C131.268 19.8529 131.245 19.9524 131.178 20.0365C130.682 20.7024 130.081 21.284 129.382 21.7815C127.948 22.7994 126.333 23.2739 124.582 23.2739C122.269 23.2739 120.278 22.478 118.655 20.7866C117.018 19.0799 116.266 16.9982 116.266 14.6256C116.266 13.072 116.605 11.5796 117.348 10.2173C118.069 8.90091 119.061 7.86005 120.338 7.10237C121.645 6.32938 123.072 5.97732 124.575 5.97732C126.115 5.97732 127.572 6.33703 128.894 7.14829C130.156 7.92128 131.133 8.96979 131.816 10.2938C132.515 11.6561 132.83 13.1256 132.83 14.6639C132.83 14.9624 132.808 15.2609 132.778 15.5517C132.755 15.743 132.605 15.8884 132.41 15.8884L119.857 15.8884Z" fill="#142948"/>
<defs>
<linearGradient id="paint0_linear_1_1899" x1="-2.46315e-07" y1="21" x2="27" y2="5" gradientUnits="userSpaceOnUse">
<stop stop-color="#2864FF"/>
<stop offset="1" stop-color="#21C1D4"/>
</linearGradient>
</defs>
</svg>
