<svg width="537" height="336" viewBox="0 0 537 336" fill="none" xmlns="http://www.w3.org/2000/svg">
<g filter="url(#filter0_f_1_908)">
<path d="M220.049 66.8523L268.843 151.603L251.459 161.612L202.665 76.8608L220.049 66.8523Z" fill="url(#paint0_linear_1_908)"/>
<path d="M180.985 251.201L210.442 209.127C212.685 205.924 216.871 204.739 220.459 206.292C225.242 208.362 226.923 214.299 223.936 218.569L202.583 249.099C197.755 256 198.803 265.413 205.03 271.084L244.028 306.601L186.724 275.534C177.927 270.765 175.246 259.398 180.985 251.201Z" fill="url(#paint1_linear_1_908)"/>
<path d="M336.291 252.94L308.035 209.989C305.885 206.72 301.732 205.414 298.098 206.864C293.253 208.796 291.4 214.686 294.264 219.044L314.746 250.21C319.372 257.248 318.052 266.627 311.664 272.115L271.617 306.521L329.851 277.097C338.782 272.585 341.79 261.3 336.291 252.94Z" fill="url(#paint2_linear_1_908)"/>
<path d="M289.871 279.432C284.386 296.75 265.901 306.343 248.583 300.858C231.265 295.373 221.672 276.888 227.157 259.57C232.642 242.252 251.127 232.66 268.445 238.144C285.763 243.629 295.355 262.114 289.871 279.432Z" fill="url(#paint3_linear_1_908)"/>
<path d="M236.888 268.091C237.028 267.648 237.753 267.684 237.873 268.134C238.972 272.254 242.669 282.075 253.458 285.492C264.247 288.908 272.924 283.007 276.195 280.271C276.552 279.972 277.165 280.359 277.025 280.803C277.01 280.849 276.992 280.887 276.963 280.925C276.3 281.788 267.342 292.994 252.564 288.314C237.787 283.633 236.913 269.314 236.868 268.226C236.866 268.178 236.873 268.137 236.888 268.091Z" fill="url(#paint4_linear_1_908)"/>
<path d="M255.792 260.697C254.859 263.641 252.419 265.494 250.341 264.836C248.262 264.178 247.334 261.258 248.266 258.314C249.198 255.37 251.639 253.516 253.717 254.175C255.795 254.833 256.724 257.753 255.792 260.697Z" fill="url(#paint5_linear_1_908)"/>
<path d="M273.345 266.261C272.413 269.205 269.972 271.058 267.894 270.4C265.816 269.742 264.887 266.822 265.819 263.878C266.752 260.934 269.192 259.081 271.27 259.739C273.349 260.397 274.277 263.317 273.345 266.261Z" fill="url(#paint6_linear_1_908)"/>
<path d="M259.189 155.276L279.545 176.154H238.833L259.189 155.276Z" fill="url(#paint7_linear_1_908)"/>
<path d="M270.146 156.321C270.146 162.086 265.472 166.76 259.707 166.76C253.942 166.76 249.268 162.086 249.268 156.321C249.268 150.555 253.942 145.882 259.707 145.882C265.472 145.882 270.146 150.555 270.146 156.321Z" fill="url(#paint8_linear_1_908)"/>
<path d="M221.418 72.5346C221.418 78.0768 216.925 82.5697 211.383 82.5697C205.841 82.5697 201.348 78.0768 201.348 72.5346C201.348 66.9924 205.841 62.4995 211.383 62.4995C216.925 62.4995 221.418 66.9924 221.418 72.5346Z" fill="url(#paint9_linear_1_908)"/>
<path d="M264.926 156.32C264.926 159.202 262.59 161.539 259.707 161.539C256.824 161.539 254.487 159.202 254.487 156.32C254.487 153.437 256.824 151.1 259.707 151.1C262.59 151.1 264.926 153.437 264.926 156.32Z" fill="url(#paint10_linear_1_908)"/>
<path d="M216.401 72.5346C216.401 75.3057 214.154 77.5522 211.383 77.5522C208.612 77.5522 206.366 75.3057 206.366 72.5346C206.366 69.7635 208.612 67.5171 211.383 67.5171C214.154 67.5171 216.401 69.7635 216.401 72.5346Z" fill="url(#paint11_linear_1_908)"/>
<path d="M238.833 176.154H279.545V190.77H238.833V176.154Z" fill="url(#paint12_linear_1_908)"/>
<path d="M210.649 198.076H307.732V206.427H210.649V198.076Z" fill="url(#paint13_linear_1_908)"/>
<path d="M210.649 196.51L238.834 190.769H279.546L307.732 196.51L307.732 198.076H210.649V196.51Z" fill="url(#paint14_linear_1_908)"/>
<path d="M210.649 204.339H223.176V212.69C223.176 216.149 220.371 218.954 216.912 218.954C213.453 218.954 210.649 216.149 210.649 212.69V204.339Z" fill="url(#paint15_linear_1_908)"/>
<path d="M253.452 204.339H265.979V218.954H253.452V204.339Z" fill="url(#paint16_linear_1_908)"/>
<path d="M295.197 204.339H307.724V212.69C307.724 216.149 304.92 218.954 301.46 218.954C298.001 218.954 295.197 216.149 295.197 212.69V204.339Z" fill="url(#paint17_linear_1_908)"/>
<path d="M255.539 208.516H263.89V258.623L260.759 308.73H258.671L255.539 258.623V208.516Z" fill="url(#paint18_linear_1_908)"/>
</g>
<g filter="url(#filter1_f_1_908)">
<path d="M25.8825 333L3.00018 305H513.549L534 332L25.8825 333Z" fill="#001D74" fill-opacity="0.05"/>
</g>
<g filter="url(#filter2_f_1_908)">
<path d="M25.8825 257L3.00018 229H513.549L534 256L25.8825 257Z" fill="#001D74" fill-opacity="0.05"/>
</g>
<g filter="url(#filter3_f_1_908)">
<path d="M25.8825 179L3.00018 151H513.549L534 178L25.8825 179Z" fill="#001D74" fill-opacity="0.05"/>
</g>
<circle cx="336.087" cy="282.992" r="26.2904" transform="rotate(62.1476 336.087 282.992)" fill="#FFD600"/>
<path d="M324.558 270.054C324.887 269.88 325.279 270.307 325.095 270.631C323.41 273.593 320.005 281.259 324.232 289.257C328.458 297.255 336.709 298.762 340.106 299.039C340.477 299.069 340.609 299.634 340.28 299.807C340.246 299.825 340.214 299.837 340.176 299.842C339.315 299.962 327.928 301.317 322.14 290.362C316.351 279.408 323.887 270.764 324.471 270.12C324.497 270.091 324.524 270.072 324.558 270.054Z" fill="black"/>
<ellipse cx="337.995" cy="273.661" rx="3.15485" ry="4.46937" transform="rotate(62.1476 337.995 273.661)" fill="black"/>
<ellipse cx="344.872" cy="286.678" rx="3.15485" ry="4.46937" transform="rotate(62.1476 344.872 286.678)" fill="black"/>
<circle cx="420.332" cy="282.991" r="26.2904" transform="rotate(-171.409 420.332 282.991)" fill="#FFD600"/>
<path d="M437.585 281.403C437.53 281.77 436.953 281.832 436.802 281.492C435.42 278.377 431.275 271.084 422.331 269.733C413.387 268.382 407.273 274.124 405.033 276.693C404.788 276.973 404.255 276.744 404.311 276.376C404.317 276.338 404.326 276.306 404.344 276.272C404.76 275.508 410.434 265.543 422.685 267.394C434.936 269.244 437.413 280.441 437.584 281.294C437.592 281.331 437.591 281.364 437.585 281.403Z" fill="black"/>
<ellipse cx="426.698" cy="290.071" rx="3.15485" ry="4.46937" transform="rotate(-171.409 426.698 290.071)" fill="black"/>
<ellipse cx="412.145" cy="287.871" rx="3.15485" ry="4.46937" transform="rotate(-171.409 412.145 287.871)" fill="black"/>
<circle cx="477.769" cy="282.992" r="26.2904" transform="rotate(15 477.769 282.992)" fill="#FFD600"/>
<path d="M460.445 282.645C460.541 282.286 461.121 282.289 461.233 282.644C462.259 285.894 465.563 293.603 474.301 295.944C483.038 298.286 489.755 293.262 492.268 290.96C492.543 290.708 493.046 290.996 492.95 291.355C492.94 291.392 492.927 291.423 492.905 291.454C492.407 292.167 485.656 301.437 473.689 298.23C461.721 295.023 460.509 283.62 460.434 282.754C460.431 282.715 460.435 282.682 460.445 282.645Z" fill="black"/>
<ellipse cx="472.236" cy="275.245" rx="3.15485" ry="4.46937" transform="rotate(15 472.236 275.245)" fill="black"/>
<ellipse cx="486.449" cy="279.056" rx="3.15485" ry="4.46937" transform="rotate(15 486.449 279.056)" fill="black"/>
<rect x="512" y="302" width="10" height="509" transform="rotate(90 512 302)" fill="white"/>
<circle cx="352.606" cy="210.363" r="26.2904" transform="rotate(46.2787 352.606 210.363)" fill="#2AEFCC"/>
<path d="M337.98 201.07C338.249 200.813 338.742 201.117 338.654 201.478C337.843 204.788 336.665 213.093 342.917 219.63C349.169 226.168 357.517 225.361 360.861 224.699C361.226 224.626 361.507 225.133 361.238 225.391C361.21 225.417 361.183 225.437 361.148 225.452C360.352 225.803 349.77 230.22 341.207 221.266C332.643 212.311 337.528 201.937 337.914 201.157C337.931 201.123 337.952 201.097 337.98 201.07Z" fill="black"/>
<ellipse cx="351.894" cy="200.866" rx="3.15485" ry="4.46937" transform="rotate(46.2787 351.894 200.866)" fill="black"/>
<ellipse cx="362.074" cy="211.506" rx="3.15485" ry="4.46937" transform="rotate(46.2787 362.074 211.506)" fill="black"/>
<circle cx="416.322" cy="210.363" r="26.2904" transform="rotate(135 416.322 210.363)" fill="#2AEFCC"/>
<path d="M425.29 195.534C425.553 195.797 425.26 196.298 424.897 196.217C421.569 195.48 413.241 194.488 406.844 200.884C400.448 207.28 401.441 215.609 402.178 218.937C402.258 219.3 401.757 219.593 401.494 219.329C401.467 219.302 401.447 219.276 401.431 219.241C401.062 218.453 396.41 207.972 405.171 199.211C413.932 190.45 424.413 195.102 425.201 195.47C425.236 195.487 425.263 195.507 425.29 195.534Z" fill="black"/>
<ellipse cx="425.803" cy="209.437" rx="3.15485" ry="4.46937" transform="rotate(135 425.803 209.437)" fill="black"/>
<ellipse cx="415.393" cy="219.848" rx="3.15485" ry="4.46937" transform="rotate(135 415.393 219.848)" fill="black"/>
<circle cx="473.841" cy="210.363" r="26.2904" transform="rotate(135 473.841 210.363)" fill="#2AEFCC"/>
<path d="M482.808 195.534C483.071 195.797 482.778 196.298 482.415 196.217C479.087 195.48 470.759 194.488 464.362 200.884C457.966 207.28 458.959 215.609 459.696 218.937C459.776 219.3 459.275 219.593 459.012 219.329C458.985 219.302 458.965 219.276 458.949 219.241C458.58 218.453 453.928 207.972 462.689 199.211C471.45 190.45 481.931 195.102 482.719 195.47C482.754 195.487 482.78 195.507 482.808 195.534Z" fill="black"/>
<ellipse cx="483.321" cy="209.437" rx="3.15485" ry="4.46937" transform="rotate(135 483.321 209.437)" fill="black"/>
<ellipse cx="472.913" cy="219.848" rx="3.15485" ry="4.46937" transform="rotate(135 472.913 219.848)" fill="black"/>
<rect x="512" y="229" width="11" height="509" transform="rotate(90 512 229)" fill="white"/>
<circle cx="305.826" cy="130.477" r="26.2904" transform="rotate(46.2787 305.826 130.477)" fill="#2AD4EF"/>
<path d="M291.202 121.185C291.471 120.928 291.965 121.231 291.877 121.593C291.066 124.903 289.888 133.208 296.139 139.745C302.391 146.282 310.74 145.476 314.083 144.813C314.448 144.741 314.73 145.248 314.461 145.505C314.433 145.532 314.406 145.551 314.371 145.567C313.575 145.918 302.993 150.335 294.429 141.38C285.866 132.426 290.751 122.052 291.137 121.272C291.154 121.237 291.175 121.211 291.202 121.185Z" fill="black"/>
<ellipse cx="305.115" cy="120.979" rx="3.15485" ry="4.46937" transform="rotate(46.2787 305.115 120.979)" fill="black"/>
<ellipse cx="315.291" cy="131.621" rx="3.15485" ry="4.46937" transform="rotate(46.2787 315.291 131.621)" fill="black"/>
<circle cx="360.476" cy="130.477" r="26.2904" transform="rotate(135 360.476 130.477)" fill="#2AD4EF"/>
<path d="M369.44 115.648C369.703 115.911 369.411 116.412 369.047 116.332C365.72 115.595 357.391 114.602 350.995 120.998C344.598 127.395 345.591 135.723 346.328 139.051C346.408 139.414 345.908 139.707 345.645 139.444C345.617 139.417 345.597 139.39 345.581 139.355C345.213 138.567 340.56 128.086 349.322 119.325C358.083 110.564 368.563 115.216 369.352 115.585C369.386 115.601 369.413 115.621 369.44 115.648Z" fill="black"/>
<ellipse cx="369.961" cy="129.551" rx="3.15485" ry="4.46937" transform="rotate(135 369.961 129.551)" fill="black"/>
<ellipse cx="359.547" cy="139.963" rx="3.15485" ry="4.46937" transform="rotate(135 359.547 139.963)" fill="black"/>
<circle cx="418.607" cy="130.476" r="26.2904" transform="rotate(15 418.607 130.476)" fill="#2AD4EF"/>
<path d="M401.284 130.13C401.38 129.77 401.96 129.773 402.072 130.128C403.098 133.378 406.403 141.088 415.14 143.429C423.877 145.77 430.594 140.746 433.107 138.444C433.382 138.193 433.885 138.48 433.789 138.839C433.779 138.877 433.766 138.907 433.744 138.939C433.246 139.652 426.495 148.921 414.528 145.714C402.56 142.507 401.348 131.105 401.273 130.238C401.27 130.2 401.274 130.167 401.284 130.13Z" fill="black"/>
<ellipse cx="413.07" cy="122.73" rx="3.15485" ry="4.46937" transform="rotate(15 413.07 122.73)" fill="black"/>
<ellipse cx="427.287" cy="126.54" rx="3.15485" ry="4.46937" transform="rotate(15 427.287 126.54)" fill="black"/>
<circle cx="472.911" cy="130.477" r="26.2904" transform="rotate(-85.0144 472.911 130.477)" fill="#2AD4EF"/>
<path d="M475.581 147.596C475.21 147.564 475.112 146.992 475.442 146.82C478.465 145.245 485.482 140.65 486.268 131.638C487.054 122.627 480.939 116.886 478.235 114.811C477.939 114.585 478.135 114.039 478.505 114.071C478.544 114.075 478.576 114.082 478.611 114.098C479.4 114.465 489.702 119.501 488.625 131.844C487.548 144.187 476.53 147.363 475.69 147.588C475.652 147.598 475.619 147.599 475.581 147.596Z" fill="black"/>
<ellipse cx="466.244" cy="137.275" rx="3.15485" ry="4.46937" transform="rotate(-85.0144 466.244 137.275)" fill="black"/>
<ellipse cx="467.525" cy="122.612" rx="3.15485" ry="4.46937" transform="rotate(-85.0144 467.525 122.612)" fill="black"/>
<rect x="512" y="151" width="11" height="509" transform="rotate(90 512 151)" fill="white"/>
<path opacity="0.3" d="M219.181 237.318C193.367 232.789 163.474 233.695 117.731 251.811C71.9888 269.926 19 301.176 19 301.176" stroke="url(#paint19_linear_1_908)" stroke-width="64.3112"/>
<rect x="174.539" y="4.77783" width="107.344" height="22.0179" transform="rotate(60.0694 174.539 4.77783)" fill="#B6CCDD"/>
<path d="M130.609 208.631L163.994 160.946C166.456 157.43 171.051 156.13 174.989 157.834C180.239 160.107 182.085 166.623 178.806 171.311L154.543 206C149.716 212.902 150.764 222.314 156.99 227.985L200.86 267.939L136.347 232.964C127.551 228.195 124.87 216.828 130.609 208.631Z" fill="#7B9EB8"/>
<path d="M303.141 210.571L271.119 161.893C268.758 158.305 264.2 156.872 260.21 158.463C254.893 160.584 252.858 167.048 256.002 171.833L279.274 207.244C283.9 214.282 282.58 223.66 276.192 229.149L231.144 267.851L296.701 234.727C305.632 230.215 308.64 218.93 303.141 210.571Z" fill="#7B9EB8"/>
<circle cx="218.89" cy="237.106" r="32.8342" transform="rotate(17.5735 218.89 237.106)" fill="#FFD600"/>
<path d="M197.301 235.699C197.441 235.256 198.164 235.292 198.284 235.741C199.382 239.854 203.072 249.657 213.842 253.068C224.612 256.479 233.274 250.588 236.539 247.856C236.895 247.558 237.507 247.945 237.367 248.388C237.353 248.434 237.335 248.471 237.306 248.509C236.644 249.371 227.702 260.557 212.95 255.885C198.198 251.213 197.326 236.919 197.281 235.833C197.279 235.785 197.286 235.744 197.301 235.699Z" fill="black"/>
<ellipse cx="212.417" cy="227.128" rx="3.94011" ry="5.58182" transform="rotate(17.5735 212.417 227.128)" fill="black"/>
<ellipse cx="229.938" cy="232.682" rx="3.94011" ry="5.58182" transform="rotate(17.5735 229.938 232.682)" fill="black"/>
<path d="M217.501 101.836L239.845 124.753H195.157L217.501 101.836Z" fill="#7B9EB8"/>
<circle cx="218.072" cy="102.983" r="11.4585" fill="#7B9EB8"/>
<circle cx="165.028" cy="11.0151" r="11.0151" fill="#7DA3C0"/>
<circle cx="218.07" cy="102.982" r="5.72923" fill="#355C79"/>
<circle cx="165.027" cy="11.0158" r="5.50753" fill="#355C79"/>
<rect x="195.157" y="124.755" width="44.688" height="16.0418" fill="#355C79"/>
<rect x="164.22" y="148.816" width="106.564" height="9.16677" fill="#355C79"/>
<path d="M164.22 147.098L195.158 140.796H239.846L270.784 147.098V148.817H164.22V147.098Z" fill="#7B9EB8"/>
<path d="M164.22 155.691H177.971V164.858C177.971 168.655 174.892 171.733 171.095 171.733C167.298 171.733 164.22 168.655 164.22 164.858V155.691Z" fill="#355C79"/>
<rect x="211.205" y="155.691" width="13.7502" height="16.0418" fill="#355C79"/>
<path d="M257.025 155.691H270.775V164.858C270.775 168.655 267.697 171.733 263.9 171.733C260.103 171.733 257.025 168.655 257.025 164.858V155.691Z" fill="#355C79"/>
<path d="M213.495 160.275H222.662V215.276L219.224 270.277H216.932L213.495 215.276V160.275Z" fill="#7B9EB8"/>
<defs>
<filter id="filter0_f_1_908" x="174.33" y="58.8763" width="168.344" height="253.477" filterUnits="userSpaceOnUse" color-interpolation-filters="sRGB">
<feFlood flood-opacity="0" result="BackgroundImageFix"/>
<feBlend mode="normal" in="SourceGraphic" in2="BackgroundImageFix" result="shape"/>
<feGaussianBlur stdDeviation="1.81158" result="effect1_foregroundBlur_1_908"/>
</filter>
<filter id="filter1_f_1_908" x="0.184148" y="302.184" width="536.632" height="33.6321" filterUnits="userSpaceOnUse" color-interpolation-filters="sRGB">
<feFlood flood-opacity="0" result="BackgroundImageFix"/>
<feBlend mode="normal" in="SourceGraphic" in2="BackgroundImageFix" result="shape"/>
<feGaussianBlur stdDeviation="1.40802" result="effect1_foregroundBlur_1_908"/>
</filter>
<filter id="filter2_f_1_908" x="0.184148" y="226.184" width="536.632" height="33.6321" filterUnits="userSpaceOnUse" color-interpolation-filters="sRGB">
<feFlood flood-opacity="0" result="BackgroundImageFix"/>
<feBlend mode="normal" in="SourceGraphic" in2="BackgroundImageFix" result="shape"/>
<feGaussianBlur stdDeviation="1.40802" result="effect1_foregroundBlur_1_908"/>
</filter>
<filter id="filter3_f_1_908" x="0.184148" y="148.184" width="536.632" height="33.6321" filterUnits="userSpaceOnUse" color-interpolation-filters="sRGB">
<feFlood flood-opacity="0" result="BackgroundImageFix"/>
<feBlend mode="normal" in="SourceGraphic" in2="BackgroundImageFix" result="shape"/>
<feGaussianBlur stdDeviation="1.40802" result="effect1_foregroundBlur_1_908"/>
</filter>
<linearGradient id="paint0_linear_1_908" x1="258.502" y1="62.4995" x2="258.502" y2="308.73" gradientUnits="userSpaceOnUse">
<stop stop-color="#E9EDF3" stop-opacity="0"/>
<stop offset="1" stop-color="#E9EDF3"/>
</linearGradient>
<linearGradient id="paint1_linear_1_908" x1="258.502" y1="62.4995" x2="258.502" y2="308.73" gradientUnits="userSpaceOnUse">
<stop stop-color="#E9EDF3" stop-opacity="0"/>
<stop offset="1" stop-color="#E9EDF3"/>
</linearGradient>
<linearGradient id="paint2_linear_1_908" x1="258.502" y1="62.4995" x2="258.502" y2="308.73" gradientUnits="userSpaceOnUse">
<stop stop-color="#E9EDF3" stop-opacity="0"/>
<stop offset="1" stop-color="#E9EDF3"/>
</linearGradient>
<linearGradient id="paint3_linear_1_908" x1="258.502" y1="62.4995" x2="258.502" y2="308.73" gradientUnits="userSpaceOnUse">
<stop stop-color="#E9EDF3" stop-opacity="0"/>
<stop offset="1" stop-color="#E9EDF3"/>
</linearGradient>
<linearGradient id="paint4_linear_1_908" x1="258.502" y1="62.4995" x2="258.502" y2="308.73" gradientUnits="userSpaceOnUse">
<stop stop-color="#E9EDF3" stop-opacity="0"/>
<stop offset="1" stop-color="#E9EDF3"/>
</linearGradient>
<linearGradient id="paint5_linear_1_908" x1="258.502" y1="62.4995" x2="258.502" y2="308.73" gradientUnits="userSpaceOnUse">
<stop stop-color="#E9EDF3" stop-opacity="0"/>
<stop offset="1" stop-color="#E9EDF3"/>
</linearGradient>
<linearGradient id="paint6_linear_1_908" x1="258.502" y1="62.4995" x2="258.502" y2="308.73" gradientUnits="userSpaceOnUse">
<stop stop-color="#E9EDF3" stop-opacity="0"/>
<stop offset="1" stop-color="#E9EDF3"/>
</linearGradient>
<linearGradient id="paint7_linear_1_908" x1="258.502" y1="62.4995" x2="258.502" y2="308.73" gradientUnits="userSpaceOnUse">
<stop stop-color="#E9EDF3" stop-opacity="0"/>
<stop offset="1" stop-color="#E9EDF3"/>
</linearGradient>
<linearGradient id="paint8_linear_1_908" x1="258.502" y1="62.4995" x2="258.502" y2="308.73" gradientUnits="userSpaceOnUse">
<stop stop-color="#E9EDF3" stop-opacity="0"/>
<stop offset="1" stop-color="#E9EDF3"/>
</linearGradient>
<linearGradient id="paint9_linear_1_908" x1="258.502" y1="62.4995" x2="258.502" y2="308.73" gradientUnits="userSpaceOnUse">
<stop stop-color="#E9EDF3" stop-opacity="0"/>
<stop offset="1" stop-color="#E9EDF3"/>
</linearGradient>
<linearGradient id="paint10_linear_1_908" x1="258.502" y1="62.4995" x2="258.502" y2="308.73" gradientUnits="userSpaceOnUse">
<stop stop-color="#E9EDF3" stop-opacity="0"/>
<stop offset="1" stop-color="#E9EDF3"/>
</linearGradient>
<linearGradient id="paint11_linear_1_908" x1="258.502" y1="62.4995" x2="258.502" y2="308.73" gradientUnits="userSpaceOnUse">
<stop stop-color="#E9EDF3" stop-opacity="0"/>
<stop offset="1" stop-color="#E9EDF3"/>
</linearGradient>
<linearGradient id="paint12_linear_1_908" x1="258.502" y1="62.4995" x2="258.502" y2="308.73" gradientUnits="userSpaceOnUse">
<stop stop-color="#E9EDF3" stop-opacity="0"/>
<stop offset="1" stop-color="#E9EDF3"/>
</linearGradient>
<linearGradient id="paint13_linear_1_908" x1="258.502" y1="62.4995" x2="258.502" y2="308.73" gradientUnits="userSpaceOnUse">
<stop stop-color="#E9EDF3" stop-opacity="0"/>
<stop offset="1" stop-color="#E9EDF3"/>
</linearGradient>
<linearGradient id="paint14_linear_1_908" x1="258.502" y1="62.4995" x2="258.502" y2="308.73" gradientUnits="userSpaceOnUse">
<stop stop-color="#E9EDF3" stop-opacity="0"/>
<stop offset="1" stop-color="#E9EDF3"/>
</linearGradient>
<linearGradient id="paint15_linear_1_908" x1="258.502" y1="62.4995" x2="258.502" y2="308.73" gradientUnits="userSpaceOnUse">
<stop stop-color="#E9EDF3" stop-opacity="0"/>
<stop offset="1" stop-color="#E9EDF3"/>
</linearGradient>
<linearGradient id="paint16_linear_1_908" x1="258.502" y1="62.4995" x2="258.502" y2="308.73" gradientUnits="userSpaceOnUse">
<stop stop-color="#E9EDF3" stop-opacity="0"/>
<stop offset="1" stop-color="#E9EDF3"/>
</linearGradient>
<linearGradient id="paint17_linear_1_908" x1="258.502" y1="62.4995" x2="258.502" y2="308.73" gradientUnits="userSpaceOnUse">
<stop stop-color="#E9EDF3" stop-opacity="0"/>
<stop offset="1" stop-color="#E9EDF3"/>
</linearGradient>
<linearGradient id="paint18_linear_1_908" x1="258.502" y1="62.4995" x2="258.502" y2="308.73" gradientUnits="userSpaceOnUse">
<stop stop-color="#E9EDF3" stop-opacity="0"/>
<stop offset="1" stop-color="#E9EDF3"/>
</linearGradient>
<linearGradient id="paint19_linear_1_908" x1="206.5" y1="251.81" x2="56.1383" y2="286.683" gradientUnits="userSpaceOnUse">
<stop stop-color="#FFD600"/>
<stop offset="1" stop-color="#FFD600" stop-opacity="0"/>
</linearGradient>
</defs>
</svg>
