<svg width="13" height="12" viewBox="0 0 13 12" fill="none" xmlns="http://www.w3.org/2000/svg">
<path d="M11.1384 6.09331C11.1384 8.54484 9.16125 10.5322 6.7223 10.5322C5.72815 10.5322 4.81072 10.202 4.07264 9.64475C4.05686 9.63284 4.0377 9.6263 4.01796 9.6263H2.93183C2.85424 9.6263 2.81355 9.71776 2.86699 9.7743C3.83579 10.7991 5.20481 11.4381 6.7223 11.4381C9.65899 11.4381 12.0397 9.04515 12.0397 6.09331C12.0397 3.14147 9.65899 0.748535 6.7223 0.748535C5.34587 0.748535 4.09158 1.27422 3.14732 2.13675C3.08769 2.19123 3.12691 2.28856 3.2075 2.28856H4.42132C4.43772 2.28856 4.45378 2.28405 4.46787 2.27562C5.12779 1.88104 5.89872 1.65443 6.7223 1.65443C9.16125 1.65443 11.1384 3.64179 11.1384 6.09331Z" fill="#CCCCCC"/>
<path d="M9.03047 7.25355L9.07661 8.07623C9.08174 8.34011 9.13813 8.55484 9.24579 8.72041H8.1769C8.08463 8.56519 8.03592 8.34529 8.0308 8.06071L8.00773 7.45534C7.99235 7.11902 7.91545 6.88618 7.77703 6.75683C7.64374 6.6223 7.42843 6.55504 7.13109 6.55504H5.77768V8.72041H4.73956V3.19445H7.22337C7.83343 3.19445 8.30763 3.33415 8.64598 3.61355C8.98433 3.89296 9.15351 4.27325 9.15351 4.75445C9.15351 5.41673 8.84848 5.85653 8.23842 6.07385C8.51525 6.16181 8.71263 6.30151 8.83054 6.49295C8.95357 6.67922 9.02022 6.93275 9.03047 7.25355ZM5.77768 4.05594V5.73236H7.16185C7.45406 5.73236 7.67963 5.65992 7.83855 5.51504C8.0026 5.36499 8.08463 5.15027 8.08463 4.87087C8.08463 4.60699 8.00004 4.40519 7.83086 4.26549C7.66681 4.12579 7.43099 4.05594 7.1234 4.05594H5.77768Z" fill="#CCCCCC"/>
<path d="M3.74819 3.37563C3.74819 3.27557 3.66749 3.19445 3.56794 3.19445H1.04445C0.944905 3.19445 0.864204 3.27557 0.864204 3.37563V3.95237C0.864204 4.05244 0.944905 4.13355 1.04445 4.13355H3.56794C3.66749 4.13355 3.74819 4.05244 3.74819 3.95237V3.37563Z" fill="#CCCCCC"/>
<path d="M3.74819 5.78606C3.74819 5.686 3.66749 5.60488 3.56794 5.60488H1.04445C0.944905 5.60488 0.864204 5.686 0.864204 5.78606V6.324C0.864204 6.42406 0.944905 6.50518 1.04445 6.50518H3.56794C3.66749 6.50518 3.74819 6.42406 3.74819 6.324V5.78606Z" fill="#CCCCCC"/>
<path d="M3.56794 7.78131C3.66749 7.78131 3.74819 7.86242 3.74819 7.96249V8.53923C3.74819 8.63929 3.66749 8.72041 3.56794 8.72041H1.04445C0.944905 8.72041 0.864204 8.63929 0.864204 8.53923V7.96249C0.864204 7.86242 0.944905 7.78131 1.04445 7.78131H3.56794Z" fill="#CCCCCC"/>
</svg>
