<svg width="141" height="27" viewBox="0 0 141 27" fill="none" xmlns="http://www.w3.org/2000/svg">
<path d="M12.8286 0.13916L16.238 8.304L24.7692 9.14819L18.3451 15.0385L20.2083 23.7251L12.8286 19.2007L5.44884 23.7251L7.31198 15.0385L0.887929 9.14819L9.41913 8.304L12.8286 0.13916Z" fill="white"/>
<path d="M41.7075 0.13916L45.1169 8.304L53.6481 9.14819L47.224 15.0385L49.0872 23.7251L41.7075 19.2007L34.3277 23.7251L36.1909 15.0385L29.7668 9.14819L38.298 8.304L41.7075 0.13916Z" fill="white"/>
<path d="M70.5825 0.13916L73.9919 8.304L82.5231 9.14819L76.099 15.0385L77.9622 23.7251L70.5825 19.2007L63.2027 23.7251L65.0659 15.0385L58.6418 9.14819L67.173 8.304L70.5825 0.13916Z" fill="white"/>
<path d="M99.4575 0.13916L102.867 8.304L111.398 9.14819L104.974 15.0385L106.837 23.7251L99.4575 19.2007L92.0778 23.7251L93.941 15.0385L87.5169 9.14819L96.0481 8.304L99.4575 0.13916Z" fill="white"/>
<path d="M128.336 0.13916L131.746 8.304L140.277 9.14819L133.853 15.0385L135.716 23.7251L128.336 19.2007L120.957 23.7251L122.82 15.0385L116.396 9.14819L124.927 8.304L128.336 0.13916Z" fill="white"/>
</svg>
